<mxfile host="app.diagrams.net" modified="2022-11-10T07:34:24.583Z" agent="5.0 (Windows NT 10.0; Win64; x64) AppleWebKit/537.36 (KHTML, like Gecko) Chrome/106.0.0.0 Safari/537.36 OPR/92.0.0.0" etag="DSuYyqChes1lLWW_GHbp" version="20.4.0" type="github">
  <diagram id="07fea595-8f29-1299-0266-81d95cde20df" name="Page-1">
    <mxGraphModel dx="1967" dy="-589" grid="1" gridSize="10" guides="1" tooltips="1" connect="1" arrows="1" fold="1" page="1" pageScale="1" pageWidth="1169" pageHeight="827" background="none" math="0" shadow="0">
      <root>
        <mxCell id="0" />
        <mxCell id="1" parent="0" />
        <mxCell id="9TW7fbve-bgB4FMiUUTu-756" value="" style="swimlane;startSize=0;fontFamily=Helvetica;fontSize=6;fillColor=default;" vertex="1" parent="1">
          <mxGeometry y="2490" width="1160" height="810" as="geometry" />
        </mxCell>
        <mxCell id="644" value="&lt;pre&gt;&lt;pre style=&quot;font-size: 10px;&quot;&gt;&lt;font face=&quot;Helvetica&quot; color=&quot;#ffffff&quot;&gt;&lt;b&gt;X3&lt;/b&gt;&lt;/font&gt;&lt;/pre&gt;&lt;/pre&gt;" style="shape=hexagon;perimeter=hexagonPerimeter2;whiteSpace=wrap;html=1;shadow=0;labelBackgroundColor=none;strokeColor=#23445D;fillColor=#23445D;gradientColor=none;fontFamily=Helvetica;fontSize=23;fontColor=#23445d;align=center;strokeWidth=3;" parent="1" vertex="1">
          <mxGeometry x="579" y="2830" width="156" height="130" as="geometry" />
        </mxCell>
        <mxCell id="647" value="&lt;h6&gt;&lt;font style=&quot;font-size: 10px; line-height: 1;&quot;&gt;Witch Kings&lt;br&gt;0(0) | 1 (2)&lt;br&gt;10/11/2022&lt;/font&gt;&lt;/h6&gt;" style="shape=hexagon;perimeter=hexagonPerimeter2;whiteSpace=wrap;html=1;shadow=0;labelBackgroundColor=none;strokeColor=#23445D;fillColor=#FFFFFF;gradientColor=none;fontFamily=Helvetica;fontSize=23;fontColor=#23445d;align=center;strokeWidth=3;" parent="1" vertex="1">
          <mxGeometry x="460" y="2898" width="156" height="130" as="geometry" />
        </mxCell>
        <mxCell id="aYw7Kfy-vIQ2TGN3p8bX-657" value="&lt;font style=&quot;font-size: 16px;&quot;&gt;Dota 2 Champions League | Tier 3 &lt;br&gt;https://liquipedia.net/dota2/Dota_2_Champions_League/2022/Season_10&amp;nbsp;&lt;/font&gt;" style="text;strokeColor=none;fillColor=none;html=1;fontSize=24;fontStyle=1;verticalAlign=middle;align=left;" parent="1" vertex="1">
          <mxGeometry x="10" y="2500" width="860" height="90" as="geometry" />
        </mxCell>
        <mxCell id="9TW7fbve-bgB4FMiUUTu-671" value="X3" style="shape=table;startSize=30;container=1;collapsible=0;childLayout=tableLayout;fontFamily=Helvetica;fontSize=6;fillColor=#FFFFFF;" vertex="1" parent="1">
          <mxGeometry x="616" y="2920" width="80" height="80" as="geometry" />
        </mxCell>
        <mxCell id="9TW7fbve-bgB4FMiUUTu-672" value="" style="shape=tableRow;horizontal=0;startSize=0;swimlaneHead=0;swimlaneBody=0;top=0;left=0;bottom=0;right=0;collapsible=0;dropTarget=0;fillColor=none;points=[[0,0.5],[1,0.5]];portConstraint=eastwest;fontFamily=Helvetica;fontSize=10;" vertex="1" parent="9TW7fbve-bgB4FMiUUTu-671">
          <mxGeometry y="30" width="80" height="10" as="geometry" />
        </mxCell>
        <mxCell id="9TW7fbve-bgB4FMiUUTu-673" value="HC" style="shape=partialRectangle;html=1;whiteSpace=wrap;connectable=0;overflow=hidden;fillColor=default;top=0;left=0;bottom=0;right=0;pointerEvents=1;fontFamily=Helvetica;fontSize=6;" vertex="1" parent="9TW7fbve-bgB4FMiUUTu-672">
          <mxGeometry width="20" height="10" as="geometry">
            <mxRectangle width="20" height="10" as="alternateBounds" />
          </mxGeometry>
        </mxCell>
        <mxCell id="9TW7fbve-bgB4FMiUUTu-674" value="Nesfeer | 178" style="shape=partialRectangle;html=1;whiteSpace=wrap;connectable=0;overflow=hidden;fillColor=default;top=0;left=0;bottom=0;right=0;pointerEvents=1;fontFamily=Helvetica;fontSize=6;" vertex="1" parent="9TW7fbve-bgB4FMiUUTu-672">
          <mxGeometry x="20" width="60" height="10" as="geometry">
            <mxRectangle width="60" height="10" as="alternateBounds" />
          </mxGeometry>
        </mxCell>
        <mxCell id="9TW7fbve-bgB4FMiUUTu-675" value="" style="shape=tableRow;horizontal=0;startSize=0;swimlaneHead=0;swimlaneBody=0;top=0;left=0;bottom=0;right=0;collapsible=0;dropTarget=0;fillColor=none;points=[[0,0.5],[1,0.5]];portConstraint=eastwest;fontFamily=Helvetica;fontSize=10;" vertex="1" parent="9TW7fbve-bgB4FMiUUTu-671">
          <mxGeometry y="40" width="80" height="10" as="geometry" />
        </mxCell>
        <mxCell id="9TW7fbve-bgB4FMiUUTu-676" value="MID" style="shape=partialRectangle;html=1;whiteSpace=wrap;connectable=0;overflow=hidden;fillColor=default;top=0;left=0;bottom=0;right=0;pointerEvents=1;fontFamily=Helvetica;fontSize=6;" vertex="1" parent="9TW7fbve-bgB4FMiUUTu-675">
          <mxGeometry width="20" height="10" as="geometry">
            <mxRectangle width="20" height="10" as="alternateBounds" />
          </mxGeometry>
        </mxCell>
        <mxCell id="9TW7fbve-bgB4FMiUUTu-677" value="Nattynar | 120" style="shape=partialRectangle;html=1;whiteSpace=wrap;connectable=0;overflow=hidden;fillColor=default;top=0;left=0;bottom=0;right=0;pointerEvents=1;fontFamily=Helvetica;fontSize=6;" vertex="1" parent="9TW7fbve-bgB4FMiUUTu-675">
          <mxGeometry x="20" width="60" height="10" as="geometry">
            <mxRectangle width="60" height="10" as="alternateBounds" />
          </mxGeometry>
        </mxCell>
        <mxCell id="9TW7fbve-bgB4FMiUUTu-678" value="" style="shape=tableRow;horizontal=0;startSize=0;swimlaneHead=0;swimlaneBody=0;top=0;left=0;bottom=0;right=0;collapsible=0;dropTarget=0;fillColor=none;points=[[0,0.5],[1,0.5]];portConstraint=eastwest;fontFamily=Helvetica;fontSize=10;" vertex="1" parent="9TW7fbve-bgB4FMiUUTu-671">
          <mxGeometry y="50" width="80" height="10" as="geometry" />
        </mxCell>
        <mxCell id="9TW7fbve-bgB4FMiUUTu-679" value="OFF" style="shape=partialRectangle;html=1;whiteSpace=wrap;connectable=0;overflow=hidden;fillColor=default;top=0;left=0;bottom=0;right=0;pointerEvents=1;fontFamily=Helvetica;fontSize=6;" vertex="1" parent="9TW7fbve-bgB4FMiUUTu-678">
          <mxGeometry width="20" height="10" as="geometry">
            <mxRectangle width="20" height="10" as="alternateBounds" />
          </mxGeometry>
        </mxCell>
        <mxCell id="9TW7fbve-bgB4FMiUUTu-680" value="Shergara | 54" style="shape=partialRectangle;html=1;whiteSpace=wrap;connectable=0;overflow=hidden;fillColor=default;top=0;left=0;bottom=0;right=0;pointerEvents=1;fontFamily=Helvetica;fontSize=6;" vertex="1" parent="9TW7fbve-bgB4FMiUUTu-678">
          <mxGeometry x="20" width="60" height="10" as="geometry">
            <mxRectangle width="60" height="10" as="alternateBounds" />
          </mxGeometry>
        </mxCell>
        <mxCell id="9TW7fbve-bgB4FMiUUTu-681" value="" style="shape=tableRow;horizontal=0;startSize=0;swimlaneHead=0;swimlaneBody=0;top=0;left=0;bottom=0;right=0;collapsible=0;dropTarget=0;fillColor=none;points=[[0,0.5],[1,0.5]];portConstraint=eastwest;fontFamily=Helvetica;fontSize=10;" vertex="1" parent="9TW7fbve-bgB4FMiUUTu-671">
          <mxGeometry y="60" width="80" height="10" as="geometry" />
        </mxCell>
        <mxCell id="9TW7fbve-bgB4FMiUUTu-682" value="MS4" style="shape=partialRectangle;html=1;whiteSpace=wrap;connectable=0;overflow=hidden;fillColor=default;top=0;left=0;bottom=0;right=0;pointerEvents=1;fontFamily=Helvetica;fontSize=6;" vertex="1" parent="9TW7fbve-bgB4FMiUUTu-681">
          <mxGeometry width="20" height="10" as="geometry">
            <mxRectangle width="20" height="10" as="alternateBounds" />
          </mxGeometry>
        </mxCell>
        <mxCell id="9TW7fbve-bgB4FMiUUTu-683" value="dark | 342" style="shape=partialRectangle;html=1;whiteSpace=wrap;connectable=0;overflow=hidden;fillColor=default;top=0;left=0;bottom=0;right=0;pointerEvents=1;fontFamily=Helvetica;fontSize=6;" vertex="1" parent="9TW7fbve-bgB4FMiUUTu-681">
          <mxGeometry x="20" width="60" height="10" as="geometry">
            <mxRectangle width="60" height="10" as="alternateBounds" />
          </mxGeometry>
        </mxCell>
        <mxCell id="9TW7fbve-bgB4FMiUUTu-684" value="" style="shape=tableRow;horizontal=0;startSize=0;swimlaneHead=0;swimlaneBody=0;top=0;left=0;bottom=0;right=0;collapsible=0;dropTarget=0;fillColor=none;points=[[0,0.5],[1,0.5]];portConstraint=eastwest;fontFamily=Helvetica;fontSize=10;" vertex="1" parent="9TW7fbve-bgB4FMiUUTu-671">
          <mxGeometry y="70" width="80" height="10" as="geometry" />
        </mxCell>
        <mxCell id="9TW7fbve-bgB4FMiUUTu-685" value="SP5" style="shape=partialRectangle;html=1;whiteSpace=wrap;connectable=0;overflow=hidden;fillColor=default;top=0;left=0;bottom=0;right=0;pointerEvents=1;fontFamily=Helvetica;fontSize=6;" vertex="1" parent="9TW7fbve-bgB4FMiUUTu-684">
          <mxGeometry width="20" height="10" as="geometry">
            <mxRectangle width="20" height="10" as="alternateBounds" />
          </mxGeometry>
        </mxCell>
        <mxCell id="9TW7fbve-bgB4FMiUUTu-686" value="nrink | 85" style="shape=partialRectangle;html=1;whiteSpace=wrap;connectable=0;overflow=hidden;fillColor=default;top=0;left=0;bottom=0;right=0;pointerEvents=1;fontFamily=Helvetica;fontSize=6;" vertex="1" parent="9TW7fbve-bgB4FMiUUTu-684">
          <mxGeometry x="20" width="60" height="10" as="geometry">
            <mxRectangle width="60" height="10" as="alternateBounds" />
          </mxGeometry>
        </mxCell>
        <mxCell id="9TW7fbve-bgB4FMiUUTu-706" value="Witch Kings" style="shape=table;startSize=30;container=1;collapsible=0;childLayout=tableLayout;fontFamily=Helvetica;fontSize=6;fillColor=#FFFFFF;" vertex="1" parent="1">
          <mxGeometry x="498" y="2990" width="80" height="80" as="geometry" />
        </mxCell>
        <mxCell id="9TW7fbve-bgB4FMiUUTu-707" value="" style="shape=tableRow;horizontal=0;startSize=0;swimlaneHead=0;swimlaneBody=0;top=0;left=0;bottom=0;right=0;collapsible=0;dropTarget=0;fillColor=none;points=[[0,0.5],[1,0.5]];portConstraint=eastwest;fontFamily=Helvetica;fontSize=10;" vertex="1" parent="9TW7fbve-bgB4FMiUUTu-706">
          <mxGeometry y="30" width="80" height="10" as="geometry" />
        </mxCell>
        <mxCell id="9TW7fbve-bgB4FMiUUTu-708" value="HC" style="shape=partialRectangle;html=1;whiteSpace=wrap;connectable=0;overflow=hidden;fillColor=default;top=0;left=0;bottom=0;right=0;pointerEvents=1;fontFamily=Helvetica;fontSize=6;" vertex="1" parent="9TW7fbve-bgB4FMiUUTu-707">
          <mxGeometry width="20" height="10" as="geometry">
            <mxRectangle width="20" height="10" as="alternateBounds" />
          </mxGeometry>
        </mxCell>
        <mxCell id="9TW7fbve-bgB4FMiUUTu-709" value="000Name | 1321" style="shape=partialRectangle;html=1;whiteSpace=wrap;connectable=0;overflow=hidden;fillColor=default;top=0;left=0;bottom=0;right=0;pointerEvents=1;fontFamily=Helvetica;fontSize=6;" vertex="1" parent="9TW7fbve-bgB4FMiUUTu-707">
          <mxGeometry x="20" width="60" height="10" as="geometry">
            <mxRectangle width="60" height="10" as="alternateBounds" />
          </mxGeometry>
        </mxCell>
        <mxCell id="9TW7fbve-bgB4FMiUUTu-710" value="" style="shape=tableRow;horizontal=0;startSize=0;swimlaneHead=0;swimlaneBody=0;top=0;left=0;bottom=0;right=0;collapsible=0;dropTarget=0;fillColor=none;points=[[0,0.5],[1,0.5]];portConstraint=eastwest;fontFamily=Helvetica;fontSize=10;" vertex="1" parent="9TW7fbve-bgB4FMiUUTu-706">
          <mxGeometry y="40" width="80" height="10" as="geometry" />
        </mxCell>
        <mxCell id="9TW7fbve-bgB4FMiUUTu-711" value="MID" style="shape=partialRectangle;html=1;whiteSpace=wrap;connectable=0;overflow=hidden;fillColor=default;top=0;left=0;bottom=0;right=0;pointerEvents=1;fontFamily=Helvetica;fontSize=6;" vertex="1" parent="9TW7fbve-bgB4FMiUUTu-710">
          <mxGeometry width="20" height="10" as="geometry">
            <mxRectangle width="20" height="10" as="alternateBounds" />
          </mxGeometry>
        </mxCell>
        <mxCell id="9TW7fbve-bgB4FMiUUTu-712" value="G.t.i. | 167" style="shape=partialRectangle;html=1;whiteSpace=wrap;connectable=0;overflow=hidden;fillColor=default;top=0;left=0;bottom=0;right=0;pointerEvents=1;fontFamily=Helvetica;fontSize=6;" vertex="1" parent="9TW7fbve-bgB4FMiUUTu-710">
          <mxGeometry x="20" width="60" height="10" as="geometry">
            <mxRectangle width="60" height="10" as="alternateBounds" />
          </mxGeometry>
        </mxCell>
        <mxCell id="9TW7fbve-bgB4FMiUUTu-713" value="" style="shape=tableRow;horizontal=0;startSize=0;swimlaneHead=0;swimlaneBody=0;top=0;left=0;bottom=0;right=0;collapsible=0;dropTarget=0;fillColor=none;points=[[0,0.5],[1,0.5]];portConstraint=eastwest;fontFamily=Helvetica;fontSize=10;" vertex="1" parent="9TW7fbve-bgB4FMiUUTu-706">
          <mxGeometry y="50" width="80" height="10" as="geometry" />
        </mxCell>
        <mxCell id="9TW7fbve-bgB4FMiUUTu-714" value="OFF" style="shape=partialRectangle;html=1;whiteSpace=wrap;connectable=0;overflow=hidden;fillColor=default;top=0;left=0;bottom=0;right=0;pointerEvents=1;fontFamily=Helvetica;fontSize=6;" vertex="1" parent="9TW7fbve-bgB4FMiUUTu-713">
          <mxGeometry width="20" height="10" as="geometry">
            <mxRectangle width="20" height="10" as="alternateBounds" />
          </mxGeometry>
        </mxCell>
        <mxCell id="9TW7fbve-bgB4FMiUUTu-715" value="N1 | 468" style="shape=partialRectangle;html=1;whiteSpace=wrap;connectable=0;overflow=hidden;fillColor=default;top=0;left=0;bottom=0;right=0;pointerEvents=1;fontFamily=Helvetica;fontSize=6;" vertex="1" parent="9TW7fbve-bgB4FMiUUTu-713">
          <mxGeometry x="20" width="60" height="10" as="geometry">
            <mxRectangle width="60" height="10" as="alternateBounds" />
          </mxGeometry>
        </mxCell>
        <mxCell id="9TW7fbve-bgB4FMiUUTu-716" value="" style="shape=tableRow;horizontal=0;startSize=0;swimlaneHead=0;swimlaneBody=0;top=0;left=0;bottom=0;right=0;collapsible=0;dropTarget=0;fillColor=none;points=[[0,0.5],[1,0.5]];portConstraint=eastwest;fontFamily=Helvetica;fontSize=10;" vertex="1" parent="9TW7fbve-bgB4FMiUUTu-706">
          <mxGeometry y="60" width="80" height="10" as="geometry" />
        </mxCell>
        <mxCell id="9TW7fbve-bgB4FMiUUTu-717" value="MS4" style="shape=partialRectangle;html=1;whiteSpace=wrap;connectable=0;overflow=hidden;fillColor=default;top=0;left=0;bottom=0;right=0;pointerEvents=1;fontFamily=Helvetica;fontSize=6;" vertex="1" parent="9TW7fbve-bgB4FMiUUTu-716">
          <mxGeometry width="20" height="10" as="geometry">
            <mxRectangle width="20" height="10" as="alternateBounds" />
          </mxGeometry>
        </mxCell>
        <mxCell id="9TW7fbve-bgB4FMiUUTu-718" value="Mr Luck | -" style="shape=partialRectangle;html=1;whiteSpace=wrap;connectable=0;overflow=hidden;fillColor=default;top=0;left=0;bottom=0;right=0;pointerEvents=1;fontFamily=Helvetica;fontSize=6;" vertex="1" parent="9TW7fbve-bgB4FMiUUTu-716">
          <mxGeometry x="20" width="60" height="10" as="geometry">
            <mxRectangle width="60" height="10" as="alternateBounds" />
          </mxGeometry>
        </mxCell>
        <mxCell id="9TW7fbve-bgB4FMiUUTu-719" value="" style="shape=tableRow;horizontal=0;startSize=0;swimlaneHead=0;swimlaneBody=0;top=0;left=0;bottom=0;right=0;collapsible=0;dropTarget=0;fillColor=none;points=[[0,0.5],[1,0.5]];portConstraint=eastwest;fontFamily=Helvetica;fontSize=10;" vertex="1" parent="9TW7fbve-bgB4FMiUUTu-706">
          <mxGeometry y="70" width="80" height="10" as="geometry" />
        </mxCell>
        <mxCell id="9TW7fbve-bgB4FMiUUTu-720" value="SP5" style="shape=partialRectangle;html=1;whiteSpace=wrap;connectable=0;overflow=hidden;fillColor=default;top=0;left=0;bottom=0;right=0;pointerEvents=1;fontFamily=Helvetica;fontSize=6;" vertex="1" parent="9TW7fbve-bgB4FMiUUTu-719">
          <mxGeometry width="20" height="10" as="geometry">
            <mxRectangle width="20" height="10" as="alternateBounds" />
          </mxGeometry>
        </mxCell>
        <mxCell id="9TW7fbve-bgB4FMiUUTu-721" value="Jeezy | 155" style="shape=partialRectangle;html=1;whiteSpace=wrap;connectable=0;overflow=hidden;fillColor=default;top=0;left=0;bottom=0;right=0;pointerEvents=1;fontFamily=Helvetica;fontSize=6;" vertex="1" parent="9TW7fbve-bgB4FMiUUTu-719">
          <mxGeometry x="20" width="60" height="10" as="geometry">
            <mxRectangle width="60" height="10" as="alternateBounds" />
          </mxGeometry>
        </mxCell>
        <mxCell id="9TW7fbve-bgB4FMiUUTu-722" value="&lt;pre&gt;&lt;pre style=&quot;font-size: 10px;&quot;&gt;&lt;font face=&quot;Helvetica&quot; color=&quot;#ffffff&quot;&gt;&lt;b&gt;Monaspa (Brame)&lt;/b&gt;&lt;/font&gt;&lt;/pre&gt;&lt;/pre&gt;" style="shape=hexagon;perimeter=hexagonPerimeter2;whiteSpace=wrap;html=1;shadow=0;labelBackgroundColor=none;strokeColor=#23445D;fillColor=#23445D;gradientColor=none;fontFamily=Helvetica;fontSize=23;fontColor=#23445d;align=center;strokeWidth=3;" vertex="1" parent="1">
          <mxGeometry x="549" y="3520" width="156" height="130" as="geometry" />
        </mxCell>
        <mxCell id="9TW7fbve-bgB4FMiUUTu-723" value="&lt;h6&gt;&lt;font style=&quot;font-size: 10px; line-height: 1;&quot;&gt;IVY&lt;br&gt;1(4) | 2(4)&lt;br&gt;10/11/2022&lt;/font&gt;&lt;/h6&gt;" style="shape=hexagon;perimeter=hexagonPerimeter2;whiteSpace=wrap;html=1;shadow=0;labelBackgroundColor=none;strokeColor=#23445D;fillColor=#FFFFFF;gradientColor=none;fontFamily=Helvetica;fontSize=23;fontColor=#23445d;align=center;strokeWidth=3;" vertex="1" parent="1">
          <mxGeometry x="430" y="3588" width="156" height="130" as="geometry" />
        </mxCell>
        <mxCell id="9TW7fbve-bgB4FMiUUTu-724" value="Monaspa" style="shape=table;startSize=30;container=1;collapsible=0;childLayout=tableLayout;fontFamily=Helvetica;fontSize=6;fillColor=#FFFFFF;" vertex="1" parent="1">
          <mxGeometry x="586" y="3610" width="80" height="80" as="geometry" />
        </mxCell>
        <mxCell id="9TW7fbve-bgB4FMiUUTu-725" value="" style="shape=tableRow;horizontal=0;startSize=0;swimlaneHead=0;swimlaneBody=0;top=0;left=0;bottom=0;right=0;collapsible=0;dropTarget=0;fillColor=none;points=[[0,0.5],[1,0.5]];portConstraint=eastwest;fontFamily=Helvetica;fontSize=10;" vertex="1" parent="9TW7fbve-bgB4FMiUUTu-724">
          <mxGeometry y="30" width="80" height="10" as="geometry" />
        </mxCell>
        <mxCell id="9TW7fbve-bgB4FMiUUTu-726" value="HC" style="shape=partialRectangle;html=1;whiteSpace=wrap;connectable=0;overflow=hidden;fillColor=default;top=0;left=0;bottom=0;right=0;pointerEvents=1;fontFamily=Helvetica;fontSize=6;" vertex="1" parent="9TW7fbve-bgB4FMiUUTu-725">
          <mxGeometry width="20" height="10" as="geometry">
            <mxRectangle width="20" height="10" as="alternateBounds" />
          </mxGeometry>
        </mxCell>
        <mxCell id="9TW7fbve-bgB4FMiUUTu-727" value="Nande | 737" style="shape=partialRectangle;html=1;whiteSpace=wrap;connectable=0;overflow=hidden;fillColor=default;top=0;left=0;bottom=0;right=0;pointerEvents=1;fontFamily=Helvetica;fontSize=6;" vertex="1" parent="9TW7fbve-bgB4FMiUUTu-725">
          <mxGeometry x="20" width="60" height="10" as="geometry">
            <mxRectangle width="60" height="10" as="alternateBounds" />
          </mxGeometry>
        </mxCell>
        <mxCell id="9TW7fbve-bgB4FMiUUTu-728" value="" style="shape=tableRow;horizontal=0;startSize=0;swimlaneHead=0;swimlaneBody=0;top=0;left=0;bottom=0;right=0;collapsible=0;dropTarget=0;fillColor=none;points=[[0,0.5],[1,0.5]];portConstraint=eastwest;fontFamily=Helvetica;fontSize=10;" vertex="1" parent="9TW7fbve-bgB4FMiUUTu-724">
          <mxGeometry y="40" width="80" height="10" as="geometry" />
        </mxCell>
        <mxCell id="9TW7fbve-bgB4FMiUUTu-729" value="MID" style="shape=partialRectangle;html=1;whiteSpace=wrap;connectable=0;overflow=hidden;fillColor=default;top=0;left=0;bottom=0;right=0;pointerEvents=1;fontFamily=Helvetica;fontSize=6;" vertex="1" parent="9TW7fbve-bgB4FMiUUTu-728">
          <mxGeometry width="20" height="10" as="geometry">
            <mxRectangle width="20" height="10" as="alternateBounds" />
          </mxGeometry>
        </mxCell>
        <mxCell id="9TW7fbve-bgB4FMiUUTu-730" value="W1sh- | 30" style="shape=partialRectangle;html=1;whiteSpace=wrap;connectable=0;overflow=hidden;fillColor=default;top=0;left=0;bottom=0;right=0;pointerEvents=1;fontFamily=Helvetica;fontSize=6;" vertex="1" parent="9TW7fbve-bgB4FMiUUTu-728">
          <mxGeometry x="20" width="60" height="10" as="geometry">
            <mxRectangle width="60" height="10" as="alternateBounds" />
          </mxGeometry>
        </mxCell>
        <mxCell id="9TW7fbve-bgB4FMiUUTu-731" value="" style="shape=tableRow;horizontal=0;startSize=0;swimlaneHead=0;swimlaneBody=0;top=0;left=0;bottom=0;right=0;collapsible=0;dropTarget=0;fillColor=none;points=[[0,0.5],[1,0.5]];portConstraint=eastwest;fontFamily=Helvetica;fontSize=10;" vertex="1" parent="9TW7fbve-bgB4FMiUUTu-724">
          <mxGeometry y="50" width="80" height="10" as="geometry" />
        </mxCell>
        <mxCell id="9TW7fbve-bgB4FMiUUTu-732" value="OFF" style="shape=partialRectangle;html=1;whiteSpace=wrap;connectable=0;overflow=hidden;fillColor=default;top=0;left=0;bottom=0;right=0;pointerEvents=1;fontFamily=Helvetica;fontSize=6;" vertex="1" parent="9TW7fbve-bgB4FMiUUTu-731">
          <mxGeometry width="20" height="10" as="geometry">
            <mxRectangle width="20" height="10" as="alternateBounds" />
          </mxGeometry>
        </mxCell>
        <mxCell id="9TW7fbve-bgB4FMiUUTu-733" value="Eleven | 34" style="shape=partialRectangle;html=1;whiteSpace=wrap;connectable=0;overflow=hidden;fillColor=default;top=0;left=0;bottom=0;right=0;pointerEvents=1;fontFamily=Helvetica;fontSize=6;" vertex="1" parent="9TW7fbve-bgB4FMiUUTu-731">
          <mxGeometry x="20" width="60" height="10" as="geometry">
            <mxRectangle width="60" height="10" as="alternateBounds" />
          </mxGeometry>
        </mxCell>
        <mxCell id="9TW7fbve-bgB4FMiUUTu-734" value="" style="shape=tableRow;horizontal=0;startSize=0;swimlaneHead=0;swimlaneBody=0;top=0;left=0;bottom=0;right=0;collapsible=0;dropTarget=0;fillColor=none;points=[[0,0.5],[1,0.5]];portConstraint=eastwest;fontFamily=Helvetica;fontSize=10;" vertex="1" parent="9TW7fbve-bgB4FMiUUTu-724">
          <mxGeometry y="60" width="80" height="10" as="geometry" />
        </mxCell>
        <mxCell id="9TW7fbve-bgB4FMiUUTu-735" value="MS4" style="shape=partialRectangle;html=1;whiteSpace=wrap;connectable=0;overflow=hidden;fillColor=default;top=0;left=0;bottom=0;right=0;pointerEvents=1;fontFamily=Helvetica;fontSize=6;" vertex="1" parent="9TW7fbve-bgB4FMiUUTu-734">
          <mxGeometry width="20" height="10" as="geometry">
            <mxRectangle width="20" height="10" as="alternateBounds" />
          </mxGeometry>
        </mxCell>
        <mxCell id="9TW7fbve-bgB4FMiUUTu-736" value="Ssapartan | 715" style="shape=partialRectangle;html=1;whiteSpace=wrap;connectable=0;overflow=hidden;fillColor=default;top=0;left=0;bottom=0;right=0;pointerEvents=1;fontFamily=Helvetica;fontSize=6;" vertex="1" parent="9TW7fbve-bgB4FMiUUTu-734">
          <mxGeometry x="20" width="60" height="10" as="geometry">
            <mxRectangle width="60" height="10" as="alternateBounds" />
          </mxGeometry>
        </mxCell>
        <mxCell id="9TW7fbve-bgB4FMiUUTu-737" value="" style="shape=tableRow;horizontal=0;startSize=0;swimlaneHead=0;swimlaneBody=0;top=0;left=0;bottom=0;right=0;collapsible=0;dropTarget=0;fillColor=none;points=[[0,0.5],[1,0.5]];portConstraint=eastwest;fontFamily=Helvetica;fontSize=10;" vertex="1" parent="9TW7fbve-bgB4FMiUUTu-724">
          <mxGeometry y="70" width="80" height="10" as="geometry" />
        </mxCell>
        <mxCell id="9TW7fbve-bgB4FMiUUTu-738" value="SP5" style="shape=partialRectangle;html=1;whiteSpace=wrap;connectable=0;overflow=hidden;fillColor=default;top=0;left=0;bottom=0;right=0;pointerEvents=1;fontFamily=Helvetica;fontSize=6;" vertex="1" parent="9TW7fbve-bgB4FMiUUTu-737">
          <mxGeometry width="20" height="10" as="geometry">
            <mxRectangle width="20" height="10" as="alternateBounds" />
          </mxGeometry>
        </mxCell>
        <mxCell id="9TW7fbve-bgB4FMiUUTu-739" value="Desire | 141" style="shape=partialRectangle;html=1;whiteSpace=wrap;connectable=0;overflow=hidden;fillColor=default;top=0;left=0;bottom=0;right=0;pointerEvents=1;fontFamily=Helvetica;fontSize=6;" vertex="1" parent="9TW7fbve-bgB4FMiUUTu-737">
          <mxGeometry x="20" width="60" height="10" as="geometry">
            <mxRectangle width="60" height="10" as="alternateBounds" />
          </mxGeometry>
        </mxCell>
        <mxCell id="9TW7fbve-bgB4FMiUUTu-740" value="IVY" style="shape=table;startSize=30;container=1;collapsible=0;childLayout=tableLayout;fontFamily=Helvetica;fontSize=6;fillColor=#FFFFFF;" vertex="1" parent="1">
          <mxGeometry x="468" y="3680" width="80" height="80" as="geometry" />
        </mxCell>
        <mxCell id="9TW7fbve-bgB4FMiUUTu-741" value="" style="shape=tableRow;horizontal=0;startSize=0;swimlaneHead=0;swimlaneBody=0;top=0;left=0;bottom=0;right=0;collapsible=0;dropTarget=0;fillColor=none;points=[[0,0.5],[1,0.5]];portConstraint=eastwest;fontFamily=Helvetica;fontSize=10;" vertex="1" parent="9TW7fbve-bgB4FMiUUTu-740">
          <mxGeometry y="30" width="80" height="10" as="geometry" />
        </mxCell>
        <mxCell id="9TW7fbve-bgB4FMiUUTu-742" value="HC" style="shape=partialRectangle;html=1;whiteSpace=wrap;connectable=0;overflow=hidden;fillColor=default;top=0;left=0;bottom=0;right=0;pointerEvents=1;fontFamily=Helvetica;fontSize=6;" vertex="1" parent="9TW7fbve-bgB4FMiUUTu-741">
          <mxGeometry width="20" height="10" as="geometry">
            <mxRectangle width="20" height="10" as="alternateBounds" />
          </mxGeometry>
        </mxCell>
        <mxCell id="9TW7fbve-bgB4FMiUUTu-743" value="Ade | 191" style="shape=partialRectangle;html=1;whiteSpace=wrap;connectable=0;overflow=hidden;fillColor=default;top=0;left=0;bottom=0;right=0;pointerEvents=1;fontFamily=Helvetica;fontSize=6;" vertex="1" parent="9TW7fbve-bgB4FMiUUTu-741">
          <mxGeometry x="20" width="60" height="10" as="geometry">
            <mxRectangle width="60" height="10" as="alternateBounds" />
          </mxGeometry>
        </mxCell>
        <mxCell id="9TW7fbve-bgB4FMiUUTu-744" value="" style="shape=tableRow;horizontal=0;startSize=0;swimlaneHead=0;swimlaneBody=0;top=0;left=0;bottom=0;right=0;collapsible=0;dropTarget=0;fillColor=none;points=[[0,0.5],[1,0.5]];portConstraint=eastwest;fontFamily=Helvetica;fontSize=10;" vertex="1" parent="9TW7fbve-bgB4FMiUUTu-740">
          <mxGeometry y="40" width="80" height="10" as="geometry" />
        </mxCell>
        <mxCell id="9TW7fbve-bgB4FMiUUTu-745" value="MID" style="shape=partialRectangle;html=1;whiteSpace=wrap;connectable=0;overflow=hidden;fillColor=default;top=0;left=0;bottom=0;right=0;pointerEvents=1;fontFamily=Helvetica;fontSize=6;" vertex="1" parent="9TW7fbve-bgB4FMiUUTu-744">
          <mxGeometry width="20" height="10" as="geometry">
            <mxRectangle width="20" height="10" as="alternateBounds" />
          </mxGeometry>
        </mxCell>
        <mxCell id="9TW7fbve-bgB4FMiUUTu-746" value="Mo13ei | 56" style="shape=partialRectangle;html=1;whiteSpace=wrap;connectable=0;overflow=hidden;fillColor=default;top=0;left=0;bottom=0;right=0;pointerEvents=1;fontFamily=Helvetica;fontSize=6;" vertex="1" parent="9TW7fbve-bgB4FMiUUTu-744">
          <mxGeometry x="20" width="60" height="10" as="geometry">
            <mxRectangle width="60" height="10" as="alternateBounds" />
          </mxGeometry>
        </mxCell>
        <mxCell id="9TW7fbve-bgB4FMiUUTu-747" value="" style="shape=tableRow;horizontal=0;startSize=0;swimlaneHead=0;swimlaneBody=0;top=0;left=0;bottom=0;right=0;collapsible=0;dropTarget=0;fillColor=none;points=[[0,0.5],[1,0.5]];portConstraint=eastwest;fontFamily=Helvetica;fontSize=10;" vertex="1" parent="9TW7fbve-bgB4FMiUUTu-740">
          <mxGeometry y="50" width="80" height="10" as="geometry" />
        </mxCell>
        <mxCell id="9TW7fbve-bgB4FMiUUTu-748" value="OFF" style="shape=partialRectangle;html=1;whiteSpace=wrap;connectable=0;overflow=hidden;fillColor=default;top=0;left=0;bottom=0;right=0;pointerEvents=1;fontFamily=Helvetica;fontSize=6;" vertex="1" parent="9TW7fbve-bgB4FMiUUTu-747">
          <mxGeometry width="20" height="10" as="geometry">
            <mxRectangle width="20" height="10" as="alternateBounds" />
          </mxGeometry>
        </mxCell>
        <mxCell id="9TW7fbve-bgB4FMiUUTu-749" value="Max | 294" style="shape=partialRectangle;html=1;whiteSpace=wrap;connectable=0;overflow=hidden;fillColor=default;top=0;left=0;bottom=0;right=0;pointerEvents=1;fontFamily=Helvetica;fontSize=6;" vertex="1" parent="9TW7fbve-bgB4FMiUUTu-747">
          <mxGeometry x="20" width="60" height="10" as="geometry">
            <mxRectangle width="60" height="10" as="alternateBounds" />
          </mxGeometry>
        </mxCell>
        <mxCell id="9TW7fbve-bgB4FMiUUTu-750" value="" style="shape=tableRow;horizontal=0;startSize=0;swimlaneHead=0;swimlaneBody=0;top=0;left=0;bottom=0;right=0;collapsible=0;dropTarget=0;fillColor=none;points=[[0,0.5],[1,0.5]];portConstraint=eastwest;fontFamily=Helvetica;fontSize=10;" vertex="1" parent="9TW7fbve-bgB4FMiUUTu-740">
          <mxGeometry y="60" width="80" height="10" as="geometry" />
        </mxCell>
        <mxCell id="9TW7fbve-bgB4FMiUUTu-751" value="MS4" style="shape=partialRectangle;html=1;whiteSpace=wrap;connectable=0;overflow=hidden;fillColor=default;top=0;left=0;bottom=0;right=0;pointerEvents=1;fontFamily=Helvetica;fontSize=6;" vertex="1" parent="9TW7fbve-bgB4FMiUUTu-750">
          <mxGeometry width="20" height="10" as="geometry">
            <mxRectangle width="20" height="10" as="alternateBounds" />
          </mxGeometry>
        </mxCell>
        <mxCell id="9TW7fbve-bgB4FMiUUTu-752" value="jmvincen | 531" style="shape=partialRectangle;html=1;whiteSpace=wrap;connectable=0;overflow=hidden;fillColor=default;top=0;left=0;bottom=0;right=0;pointerEvents=1;fontFamily=Helvetica;fontSize=6;" vertex="1" parent="9TW7fbve-bgB4FMiUUTu-750">
          <mxGeometry x="20" width="60" height="10" as="geometry">
            <mxRectangle width="60" height="10" as="alternateBounds" />
          </mxGeometry>
        </mxCell>
        <mxCell id="9TW7fbve-bgB4FMiUUTu-753" value="" style="shape=tableRow;horizontal=0;startSize=0;swimlaneHead=0;swimlaneBody=0;top=0;left=0;bottom=0;right=0;collapsible=0;dropTarget=0;fillColor=none;points=[[0,0.5],[1,0.5]];portConstraint=eastwest;fontFamily=Helvetica;fontSize=10;" vertex="1" parent="9TW7fbve-bgB4FMiUUTu-740">
          <mxGeometry y="70" width="80" height="10" as="geometry" />
        </mxCell>
        <mxCell id="9TW7fbve-bgB4FMiUUTu-754" value="SP5" style="shape=partialRectangle;html=1;whiteSpace=wrap;connectable=0;overflow=hidden;fillColor=default;top=0;left=0;bottom=0;right=0;pointerEvents=1;fontFamily=Helvetica;fontSize=6;" vertex="1" parent="9TW7fbve-bgB4FMiUUTu-753">
          <mxGeometry width="20" height="10" as="geometry">
            <mxRectangle width="20" height="10" as="alternateBounds" />
          </mxGeometry>
        </mxCell>
        <mxCell id="9TW7fbve-bgB4FMiUUTu-755" value="Qupe | 552" style="shape=partialRectangle;html=1;whiteSpace=wrap;connectable=0;overflow=hidden;fillColor=default;top=0;left=0;bottom=0;right=0;pointerEvents=1;fontFamily=Helvetica;fontSize=6;" vertex="1" parent="9TW7fbve-bgB4FMiUUTu-753">
          <mxGeometry x="20" width="60" height="10" as="geometry">
            <mxRectangle width="60" height="10" as="alternateBounds" />
          </mxGeometry>
        </mxCell>
        <mxCell id="9TW7fbve-bgB4FMiUUTu-757" value="" style="swimlane;startSize=0;fontFamily=Helvetica;fontSize=6;fillColor=default;" vertex="1" parent="1">
          <mxGeometry y="3316" width="1160" height="810" as="geometry" />
        </mxCell>
      </root>
    </mxGraphModel>
  </diagram>
</mxfile>
